<svg id="Layer_1" data-name="Layer 1" xmlns="http://www.w3.org/2000/svg" viewBox="0 0 1783.49 694.53"><defs><style>.cls-1{fill:#fff;}.cls-2{opacity:0.1;}</style></defs><title>banner.white</title><polygon class="cls-1" points="1116.15 694.53 922.5 385.86 922.67 385.68 922.41 385.28 1106.89 191.44 943.02 191.44 759.52 380.52 759.52 0 614.83 0 614.83 694.53 759.52 694.53 759.52 557.82 761.75 556.78 761.75 554.19 823.16 489.22 823.42 489.66 824.61 488.41 945.72 694.53 1116.15 694.53"/><polygon class="cls-2" points="758.15 557.53 758.15 380.55 941.97 191.41 1106.04 191.41 758.15 557.53"/><path class="cls-1" d="M262.44,436.33v57.91C255.36,493.6,247,493,241.85,493c-59.19,0-95.22,45.68-95.22,108.74v151.2H94.51V439.55h52.12v55.33h.64c23.16-37.32,59.84-59.19,102.3-59.19C254.72,435.69,259.22,435.69,262.44,436.33Z" transform="translate(-94.51 -191.75)"/><path class="cls-1" d="M609.24,439.55V752.89H559V703.35h-.64c-25.09,33.46-63.7,53.4-109.38,53.4-86.86,0-153.77-62.41-153.77-158.28,0-92.65,64.34-162.78,153.13-162.78,43.11,0,81.71,18,108.09,50.83h.64v-47ZM559,598.47c0-64.34-44.4-114.53-104.88-114.53C395,483.95,348,529,348,598.47c0,63.05,41.82,110.67,105.52,110.67C510.15,709.14,559,664.74,559,598.47Z" transform="translate(-94.51 -191.75)"/><path class="cls-1" d="M1502.9,439.55V752.89h-52.12V700.77h-.64c-25.09,36-62.41,56-102.95,56-72.06,0-117.74-41.18-117.74-130.61V439.55h52.12V611.34c0,71.42,26.38,97.8,76.57,97.8,49.54,0,92.65-43.11,92.65-117.74V439.55Z" transform="translate(-94.51 -191.75)"/><path class="cls-1" d="M1878,566.94V752.89h-52.12V581.74c0-73.35-30.88-97.8-76.57-97.8-59.19,0-98.44,41.82-98.44,112.6V752.89h-52.12V439.55h52.12v54.69h.64c26.38-37.32,67.56-58.55,113.88-58.55C1833,435.69,1878,477.51,1878,566.94Z" transform="translate(-94.51 -191.75)"/></svg>