<?xml version="1.0" encoding="utf-8"?>
<!-- Generator: Adobe Illustrator 21.1.0, SVG Export Plug-In . SVG Version: 6.00 Build 0)  -->
<svg version="1.1"
	 id="svg143" inkscape:version="0.92.1 r15371" sodipodi:docname="banner.svg" xmlns:cc="http://creativecommons.org/ns#" xmlns:dc="http://purl.org/dc/elements/1.1/" xmlns:inkscape="http://www.inkscape.org/namespaces/inkscape" xmlns:rdf="http://www.w3.org/1999/02/22-rdf-syntax-ns#" xmlns:sodipodi="http://sodipodi.sourceforge.net/DTD/sodipodi-0.dtd" xmlns:svg="http://www.w3.org/2000/svg"
	 xmlns="http://www.w3.org/2000/svg" xmlns:xlink="http://www.w3.org/1999/xlink" x="0px" y="0px" viewBox="0 0 1275.3 395.3"
	 style="enable-background:new 0 0 1275.3 395.3;" xml:space="preserve">
<style type="text/css">
	.st0{fill:#252A30;}
	.st1{fill:#FFFFFF;}
	.st2{opacity:0.1;enable-background:new    ;}
</style>
<sodipodi:namedview  bordercolor="#666666" borderopacity="1" fit-margin-bottom="0" fit-margin-left="0" fit-margin-right="0" fit-margin-top="0" gridtolerance="10" guidetolerance="10" id="namedview145" inkscape:current-layer="svg143" inkscape:cx="718.65301" inkscape:cy="178.89289" inkscape:pageopacity="0" inkscape:pageshadow="2" inkscape:window-height="1057" inkscape:window-maximized="1" inkscape:window-width="1858" inkscape:window-x="-8" inkscape:window-y="-8" inkscape:zoom="0.71875" objecttolerance="10" pagecolor="#ffffff" showgrid="false">
	</sodipodi:namedview>
<g id="banner" transform="translate(-322.4,-344.7)">
	<g id="g140">
		<g id="letter_1_">
			<path id="path112" inkscape:connector-curvature="0" class="st0" d="M749.3,533C749.3,532.9,749.3,532.9,749.3,533z"/>
			<g id="g128">
				<path id="path114" inkscape:connector-curvature="0" class="st1" d="M455.3,499.6v132.7h-21.3v-21h-0.3
					c-10.6,14.1-27,22.6-46.3,22.6c-36.7,0-65.1-26.4-65.1-67c0-39.3,27.2-68.9,64.9-68.9c18.2,0,34.6,7.6,45.8,21.5h0.3v-19.9
					L455.3,499.6L455.3,499.6z M434.1,566.9c0-27.2-18.8-48.5-44.4-48.5c-25,0-44.9,19.1-44.9,48.5c0,26.7,17.7,46.9,44.7,46.9
					C413.4,613.8,434.1,595,434.1,566.9L434.1,566.9z"/>
				<path id="path116" inkscape:connector-curvature="0" class="st1" d="M497.8,431.8h22.1v200.5h-22.1V431.8z"/>
				<path id="path118" inkscape:connector-curvature="0" class="st1" d="M689.1,499.6v132.7h-21.3v-21h-0.3
					c-10.6,14.1-27,22.6-46.3,22.6c-36.7,0-65.1-26.4-65.1-67c0-39.3,27.2-68.9,64.9-68.9c18.2,0,34.6,7.6,45.8,21.5h0.3v-19.9
					L689.1,499.6L689.1,499.6z M667.8,566.9c0-27.2-18.8-48.5-44.4-48.5c-25,0-44.9,19.1-44.9,48.5c0,26.7,17.7,46.9,44.7,46.9
					C647.1,613.8,667.8,595,667.8,566.9L667.8,566.9z"/>
				<path id="path120" inkscape:connector-curvature="0" class="st1" d="M1041.9,499.6v132.7h-21.3v-21h-0.3
					c-10.6,14.1-27,22.6-46.3,22.6c-36.7,0-65.1-26.4-65.1-67c0-39.3,27.2-68.9,64.9-68.9c18.2,0,34.6,7.6,45.8,21.5h0.3v-19.9
					L1041.9,499.6L1041.9,499.6z M1020.6,566.9c0-27.2-18.8-48.5-44.4-48.5c-25,0-44.9,19.1-44.9,48.5c0,26.7,17.7,46.9,44.7,46.9
					C999.9,613.8,1020.6,595,1020.6,566.9L1020.6,566.9z"/>
				<path id="path122" inkscape:connector-curvature="0" class="st1" d="M1153.5,498.3v24.5c-3-0.3-6.5-0.6-8.7-0.6
					c-25,0-40.3,19.3-40.3,46v64h-22.1V499.6h22.1v23.4h0.3c9.8-15.8,25.4-25,43.4-25C1150.3,498.1,1152.2,498.1,1153.5,498.3
					L1153.5,498.3z"/>
				<path id="path124" inkscape:connector-curvature="0" class="st1" d="M1182.6,592.8v-74.1h-16.9v-19.1h16.9v-45.2l22.1-2.4v47.7
					h44.1v19.1h-44.1v70.7c0,15.8,3.9,23.7,16.3,23.7c7.9,0,16.1-3.3,22.3-6.8l6,19.3c-7.4,4.1-16.7,8.2-32.1,8.2
					C1193.6,634,1182.6,619.5,1182.6,592.8L1182.6,592.8z"/>
				<path id="path126" inkscape:connector-curvature="0" class="st1" d="M1389.2,573H1287c3,24.8,20.4,40.8,44.4,40.8
					c16.7,0,29.1-7.6,37.3-18l15.6,13.3c-11.5,14.7-29.5,24.8-53.7,24.8c-37.6,0-66-27.5-66-67.8c0-40,27.5-68.1,63.4-68.1
					c37.1,0,61.6,27.8,61.6,66C1389.7,567.5,1389.2,572.1,1389.2,573z M1287.9,554.7h80.1c-3.5-21.8-17.4-36.2-38.7-36.2
					C1308.5,518.5,1292,532.1,1287.9,554.7z"/>
			</g>
		</g>
		<g id="K_1_">
			<g id="g135">
				<g id="g133">
					<path id="path131" inkscape:connector-curvature="0" class="st1" d="M799.3,611.3l-30.5,34.6v52.5h-59V367.5h59v200.3h0.4
						l78.8-88.8h68.3l-77.3,87.2l78.7,132.2h-65.5l-52.1-87H799.3z"/>
				</g>
			</g>
			<polygon id="polygon137" class="st2" points="769,567.4 847.4,479 916.4,479 768.3,645.8 			"/>
		</g>
	</g>
</g>
<g>
	<path class="st1" d="M1086.7,114.6c0-8.5,6.8-15.6,15.8-15.6c8.7,0,15.8,7.1,15.8,15.6c0,8.7-7.1,15.6-15.8,15.6
		C1093.5,130.1,1086.7,123.3,1086.7,114.6z M1091.3,154.7h22.1v132.9h-22.1V154.7z"/>
	<path class="st1" d="M1138.3,223c0-38.2,27.3-68.2,68.8-68.2c39,0,68.2,27.8,68.2,68.2s-29.2,68-68.2,68
		C1165.6,290.9,1138.3,261.2,1138.3,223z M1252.9,223c0-28.4-20.2-47.8-45.8-47.8c-27.8,0-46.4,21.3-46.4,47.8
		c0,26.5,18.8,47.8,46.4,47.8C1232.7,270.7,1252.9,251.1,1252.9,223z"/>
</g>
</svg>
